<svg xmlns="http://www.w3.org/2000/svg" viewBox="0 0 64 64" fill="none">
  <defs>
    <linearGradient id="bg" x1="8" y1="8" x2="56" y2="56" gradientUnits="userSpaceOnUse">
      <stop stop-color="#7C3AED"/>
      <stop offset="0.55" stop-color="#EC4899"/>
      <stop offset="1" stop-color="#06B6D4"/>
    </linearGradient>
  </defs>
  <rect x="6" y="6" width="52" height="52" rx="16" fill="#0F172A"/>
  <rect x="8" y="8" width="48" height="48" rx="14" fill="url(#bg)"/>
  <path d="M21 23h10.5c5.2 0 8.5 2.9 8.5 7.5 0 3.4-1.8 5.7-4.9 6.8l5.8 10.2h-6.1l-5.1-9.2h-3.3v9.2H21V23zm10 10.7c2.4 0 3.8-1.1 3.8-3.1 0-2-1.4-3-3.8-3h-4.5v6.1H31z" fill="white"/>
  <path d="M43 23h6v24h-6z" fill="white"/>
</svg>